<svg id="Lag_1" data-name="Lag 1" xmlns="http://www.w3.org/2000/svg" width="70.16mm" height="58.34mm" viewBox="0 0 198.89 165.38"><defs><style>.cls-1{fill:#f9f9f9;}</style></defs><title>hvid_kurv</title><path class="cls-1" d="M99.22,62.11h83.17a71.71,71.71,0,0,1,7.48.15c5.36.58,9.13,3.69,9,9a7.75,7.75,0,0,1-9,7.77c-9.26-1.33-10.81,4-12.5,11.14-5.09,21.54-11,42.87-16.15,64.4-1.9,8-6.29,10.81-14.11,10.77q-48.66-.27-97.31,0c-7.88,0-12.17-2.91-14.07-10.82-5.43-22.59-11.57-45-17-67.6-1.3-5.41-3-8.37-9.15-7.77-6,.57-9.75-2.88-9.55-8.84s4.31-8.3,10.22-8.28C39.89,62.17,69.56,62.11,99.22,62.11Zm9.67,52.52c0-7.73.25-15.48-.09-23.2-.24-5.61-2.14-10.46-9.07-10.62s-9.39,4.41-9.5,10.13q-.45,23.19,0,46.4c.1,5.71,2.59,10.33,9.43,10.23s8.9-4.92,9.15-10.56C109.14,129.56,108.88,122.09,108.89,114.63Zm-37.29.15h0c0-8.28.13-16.56,0-24.84-.12-5.42-2.9-8.92-8.59-9.12-6.14-.21-9.32,3.35-9.39,9.15-.21,16-.18,32,0,48,.05,5.72,2.84,9.57,9,9.54s8.91-3.79,9-9.57C71.71,130.23,71.6,122.51,71.6,114.78Zm56.69-.61q0,11.17,0,22.36c0,6.28,2.08,11.09,9.32,11,6.69-.1,8.87-4.58,8.88-10.56q0-22.77,0-45.54c0-6-2.2-10.46-8.89-10.56-7.23-.1-9.32,4.67-9.31,11Z"/><path class="cls-1" d="M142.18,51.42c-8.62,2.75-12.09-1.3-15.12-7.47-4.74-9.68-10.1-19.07-15.49-28.41-3.13-5.42-3-10.44,2.18-13.81,5.75-3.72,11-1.06,14,4.35,7.52,13.54,15.48,27,21.44,41.19C153,56.37,143.38,49.69,142.18,51.42Z"/><path class="cls-1" d="M47.77,52.17C56.65,35.36,64.58,19.92,73,4.73,75.81-.44,80.84-1.2,85.82,1.78,90.36,4.49,91,8.63,88.57,13.26c-6,11.51-12.09,23-18,34.56-1.56,3.06-3.5,4.61-7.08,4.41C58.84,52,54.14,52.17,47.77,52.17Z"/></svg>
