<?xml version="1.0" standalone="no"?>
<!DOCTYPE svg PUBLIC "-//W3C//DTD SVG 20010904//EN"
 "http://www.w3.org/TR/2001/REC-SVG-20010904/DTD/svg10.dtd">
<svg version="1.0" xmlns="http://www.w3.org/2000/svg"
 width="272.000000pt" height="272.000000pt" viewBox="0 0 272.000000 272.000000"
 preserveAspectRatio="xMidYMid meet">
<metadata>
Created by potrace 1.11, written by Peter Selinger 2001-2013
</metadata>
<g transform="translate(0.000000,272.000000) scale(0.100000,-0.100000)"
fill="#000000" stroke="none">
<path d="M838 2270 c-20 -11 -44 -30 -52 -42 -41 -59 -5 -188 134 -479 148
-310 198 -495 156 -577 -19 -38 -25 -39 -188 -46 -285 -13 -548 -88 -740 -210
-115 -73 -129 -87 -135 -138 -6 -51 24 -123 55 -132 37 -12 450 117 572 179
94 47 205 85 249 85 45 0 101 -18 101 -32 0 -6 -24 -42 -53 -82 -116 -154
-172 -279 -147 -325 22 -41 133 -54 186 -22 65 40 147 138 267 321 78 121 102
148 152 173 78 39 276 48 449 21 147 -24 341 -15 459 20 147 44 261 112 365
219 l53 54 -14 35 c-8 19 -27 44 -42 56 -45 36 -97 29 -216 -27 -240 -112
-383 -138 -554 -101 -155 33 -175 33 -343 -9 -86 -22 -157 -39 -158 -38 -1 1
2 25 6 52 14 84 11 251 -6 328 -14 63 -47 148 -207 537 -35 85 -89 150 -151
180 -56 26 -147 27 -198 0z"/>
</g>
</svg>
