<svg id="Layer_1" data-name="Layer 1" xmlns="http://www.w3.org/2000/svg" width="627" height="478" viewBox="0 0 627 478"><defs><style>.cls-1{fill:#f7f7f0;stroke:#000;}.cls-1,.cls-2,.cls-4,.cls-8{stroke-miterlimit:10;}.cls-1,.cls-7,.cls-8{stroke-width:5px;}.cls-2,.cls-3,.cls-4,.cls-8{fill:#9eaa9c;stroke:#9eaa9c;}.cls-2,.cls-3,.cls-5{stroke-width:3px;}.cls-3,.cls-5,.cls-6,.cls-7{stroke-linecap:round;stroke-linejoin:round;}.cls-4{stroke-width:8px;}.cls-5,.cls-6,.cls-7{fill:#7e877c;stroke:#7e877c;}.cls-6{stroke-width:4px;}.cls-9{fill:#c1c1bf;}</style></defs><title>kop-interaktiv</title><path class="cls-1" d="M510.5,64.5c.95-2.85,6.33.66,20,7,15.57,7.22,23.36,10.83,27,13,7.17,4.27,16.66,10,27,20a101.56,101.56,0,0,1,16,19,98.26,98.26,0,0,1,14,70c-3.17,16.24-10,27.24-15,35-14.36,22.48-32,34.8-44,43-29.75,20.33-57.46,27.43-72,31-31.11,7.64-66.33,13.8-62,7,7-11,14-28,22-37,.53-.6,1-.06,7,0,0,0,8.15.08,21,0,36.57-.22,65-17,65-17,7.57-4.47,18.44-11,28-24a87.11,87.11,0,0,0,15-36c1.48-8.45,4.85-29.42-6-51-10-20-27.17-30.29-32-33-17.42-9.78-25.72-15.16-34-17C498.5,92.5,508.5,70.5,510.5,64.5Z"/><path class="cls-1" d="M510.5,64.5c.95-2.85,6.33.66,20,7,15.57,7.22,23.36,10.83,27,13,7.17,4.27,16.66,10,27,20a101.56,101.56,0,0,1,16,19,98.26,98.26,0,0,1,14,70c-3.17,16.24-10,27.24-15,35-14.36,22.48-32,34.8-44,43-29.75,20.33-57.46,27.43-72,31-31.11,7.64-66.33,13.8-62,7,7-11,14-28,22-37,.53-.6,1-.06,7,0,0,0,8.15.08,21,0,36.57-.22,65-17,65-17,7.57-4.47,18.44-11,28-24a87.11,87.11,0,0,0,15-36c1.48-8.45,4.85-29.42-6-51-10-20-27.17-30.29-32-33-17.42-9.78-25.72-15.16-34-17C498.5,92.5,508.5,70.5,510.5,64.5Z"/><path class="cls-1" d="M15.5,23.5c-9.9,9.67,2,31,16,79,13.73,47.08,9.35,31.16,26,77,19.29,53.12,28.94,79.68,40,102,8.14,16.44,15.26,33.37,23,50,4.68,10.07,9.46,20.27,13,35,2.09,8.7,4.07,16.93,4,28-.12,19.27-4,23-3,35,.1,1.24,4,14.18,16,22a57.75,57.75,0,0,0,20,8c35,6,17.34,3.78,54,6,11.05.67,23.87,1.18,63,1,47.2-.22,59.76-1.1,76-5,15.9-3.82,39.8-9.83,43-24,1.62-7.17-3.37-10.63-6-25-.79-4.31-2-13.21,1-33a283.38,283.38,0,0,1,19-66c11-25.82,14.59-27.1,30-58a668.84,668.84,0,0,0,33-78c3.39-9.74,3.72-11.46,22-80,15.58-58.42,20-74.42,11-83-6.08-5.83-14.06-2.05-33-3-40-2-41,2-101,0-34.58-1.15-44.51-1.35-76,0C141.13,18.6,105,14.8,45.32,19.89a68.5,68.5,0,0,1-11.81-.07C28.11,19.34,19.71,19.38,15.5,23.5Z"/><path class="cls-2" d="M360.5,356.5c.26-.92,5.66-12.14,14-34,2-5.23,8.84-23.32,17-49,4.58-14.41,7.78-25.8,14-48,17.2-61.4,16.74-66.45,15-72-1.19-3.8-5.43-15.68-4-30,.46-4.57,1.57-10.21,6-14,.75-.65,5.55-4.75,10-3,3.64,1.43,4.76,5.87,5,7,1,4.85-1.37,8.65-4,14-2.84,5.78-6,11.63-7,18C413.5,231.5,356.5,370.5,360.5,356.5Z"/><path class="cls-2" d="M208.49,367.26c-.43-.73-4.76-10.54-14.2-28.71-2.25-4.35-10.09-19.37-21.95-40-6.66-11.59-12.11-20.57-22.75-38.06-29.44-48.38-32.74-51.56-36.95-54.52a91.54,91.54,0,0,1-20.2-18.32c-2.57-3.24-5.49-7.49-5.73-11.92,0-.75-.3-5.55,2.85-6.29,2.58-.61,5.82,1.88,6.62,2.53,3.45,2.79,4.64,6.36,6.68,11.06,2.2,5.08,4.27,10.36,7.71,15C157,261.05,215.17,378.32,208.49,367.26Z"/><path class="cls-3" d="M257.72,390.69c-24.46-58.89-24.6-64-23.55-69.68.73-3.91,3.51-16.22.37-30.26-1-4.48-2.79-9.95-7.64-13.18-.82-.55-6.08-4.05-10.29-1.77-3.43,1.85-4,6.4-4.12,7.55-.44,4.93,2.4,8.41,5.65,13.41,3.52,5.4,7.57,10.85,10.48,16.6"/><path class="cls-2" d="M393.5,317.5c.26-.92,5.66-12.14,14-34,2-5.23,8.84-23.32,17-49,4.58-14.41,7.78-25.8,14-48,17.2-61.4,16.74-66.45,15-72-1.19-3.8-5.43-15.68-4-30,.46-4.57,1.57-10.21,6-14,.75-.65,5.55-4.75,10-3,3.64,1.43,4.76,5.87,5,7,1,4.85-1.37,8.65-4,14-2.84,5.78-6,11.63-7,18C446.5,192.5,389.5,331.5,393.5,317.5Z"/><path class="cls-2" d="M157.7,288.16c-.24-.82-1.55-11.71-5.61-32-1-4.86-4.37-21.66-10.28-44.89-3.31-13-6.22-23.17-11.91-42.91-15.72-54.6-18.31-58.33-22-61.95-2.53-2.47-10.82-10-16.28-21.69-1.74-3.73-3.51-8.57-2.14-13.29.23-.8,1.71-5.92,5.58-6.35,3.16-.35,5.94,2.65,6.62,3.43,2.9,3.35,2.94,7.27,3.53,12.48.63,5.63,1,11.47,3.25,16.8C138.15,169.77,161.23,300.64,157.7,288.16Z"/><path class="cls-2" d="M70.5,199.5c-.09-.55,0,1.08-2-12-.48-3.13-4.47-13.67-7-29-1.42-8.6-4-15-8-28-10.92-35.49-9.08-39.77-10-43-.63-2.21-.73-9.24-2.48-17.71a49.85,49.85,0,0,1-1.21-8.4c0-.4,0-2.93.68-2a18,18,0,0,1,1.47,4,62.77,62.77,0,0,1,1.43,8.35c.46,3.47.89,7,1.63,10.77C55,133.49,71.93,207.85,70.5,199.5Z"/><path class="cls-2" d="M71.88,198.7c0-.48-.11,1-.73-10.69-.15-2.78-3-12.33-3.89-26-.5-7.66-2.38-13.47-5-25.17-7.06-32-4.82-35.61-5.39-38.52-.4-2,.22-8.18-.62-15.75A40.22,40.22,0,0,1,56,75.11c0-.35.27-2.59.88-1.73a14.23,14.23,0,0,1,1,3.62,50,50,0,0,1,.54,7.44c.09,3.09.15,6.23.49,9.6C63.49,139.57,72.42,206.14,71.88,198.7Z"/><path class="cls-2" d="M327.3,397.48c-.51-.81-8.86-10-23.06-28.64-3.39-4.45-15.08-19.86-30.18-42.18-8.48-12.52-14.77-22.54-27-42.07-33.89-54-34.87-59-34.78-64.8.06-4,.76-16.58-4.66-29.9-1.73-4.25-4.4-9.35-9.72-11.73-.91-.4-6.67-3-10.44,0-3.09,2.4-2.9,7-2.82,8.13.39,4.94,3.77,7.9,7.81,12.29,4.35,4.74,9.08,9.45,11.81,15.28C241.06,292.61,335.1,409.77,327.3,397.48Z"/><path class="cls-2" d="M223.75,397.15c-.3-.79-5.78-10.27-14.63-28.92-2.11-4.45-9.38-19.89-18.39-41.92C185.68,314,182,304.15,175,285c-19.57-52.85-19.59-57.34-18.57-62.37.7-3.45,3.33-14.27.95-26.79-.76-4-2.16-8.89-6.22-11.89-.69-.51-5.09-3.76-8.72-1.87-3,1.55-3.55,5.56-3.67,6.57-.48,4.36,1.87,7.52,4.53,12,2.88,4.88,6.06,9.8,7.4,15.34C168.68,291,228.28,409.19,223.75,397.15Z"/><path class="cls-2" d="M339.5,371.5c.05-1,20.81-44.82,24-68,.76-5.54,11.85-25.14,14-52,1.2-15.07,9-26,10-49,2.88-63.7,5.7-69.81,2.75-74.83-2-3.43-8.83-14-10.67-28.32-.59-4.55-.78-10.3,2.68-15,.58-.8,4.33-5.88,9.06-5.18,3.87.57,6,4.64,6.45,5.68,2.11,4.49.62,8.74-.73,14.55-1.46,6.27-3.25,12.69-2.75,19.11C401.06,205.24,338.77,386,339.5,371.5Z"/><path class="cls-2" d="M258.5,248.5h0c-1.5-5.39,2.81,21.68-1-5-2-14-6.83-26.44-15-48-22.59-59.63-26.92-66.26-31.61-69.7-3.21-2.35-13.68-9.4-21-21.78-2.34-3.94-4.79-9.15-3.48-14.83.23-1,1.65-7.11,6.27-8.34,3.78-1,7.32,1.9,8.18,2.66,3.71,3.29,4,7.78,5.09,13.65,1.14,6.33,2,12.94,5,18.64C251.54,192.73,255.5,231.5,258.5,248.5Z"/><path class="cls-4" d="M301.57,363.94c-.07-.95,14.88-47.12,15.06-70.52.05-5.59,8.53-26.45,7.2-53.37-.74-15.1,5.55-26.9,3.62-49.88-5.33-63.54-3.32-70-6.89-74.56-2.44-3.14-10.56-12.79-14.23-26.71-1.17-4.44-2.09-10.12.73-15.21.48-.87,3.54-6.39,8.33-6.31,3.9.07,6.51,3.84,7.13,4.81,2.66,4.18,1.73,8.58,1.14,14.52-.64,6.4-1.59,13-.27,19.31C341.25,191.14,302.72,378.46,301.57,363.94Z"/><path class="cls-4" d="M208.65,367.37c-.31-.74-1.79-39.16-7.78-57.55-1.43-4.4-.88-22-8.85-42.95-4.47-11.74-3.1-21.93-10.47-39.68-20.38-49.11-20.63-54.44-24.36-57.53-2.55-2.11-10.82-8.51-17-18.9-2-3.31-4.13-7.64-3.46-12,.11-.75.83-5.53,4.24-6.16,2.78-.51,5.61,2.07,6.3,2.74,3,2.89,3.47,6.48,4.6,11.23,1.22,5.12,2.27,10.44,4.86,15.2C191.57,225.94,213.25,378.6,208.65,367.37Z"/><path class="cls-4" d="M295,336c5-28-3.11,23.19,0,0,.74-5.54-2.06,26.87,0,0,1.16-15.07,6.42-17.6,8.43-40.56C309,232,308.92,225.61,306,220.6c-2-3.42-8.87-14-10.76-28.28-.6-4.55-.81-10.3,2.63-15,.59-.8,4.32-5.89,9.05-5.21,3.87.56,6,4.63,6.47,5.67,2.12,4.49.65,8.73-.69,14.55A102,102,0,0,0,310,211.44C307,298,292.44,350.33,295,336Z"/><path class="cls-4" d="M304.27,335.08c-9.55-22,7.06,18.6,0,0-1.69-4.45,6.92,22.13,0,0-3.89-12.42-8.67-12.58-14.8-31.41-16.91-52-18.09-57.48-16.64-62.87,1-3.69,4.52-15.31,3.28-28.19-.39-4.11-1.34-9.09-5.07-11.8-.64-.46-4.68-3.4-8.41-1-3.05,1.94-4,6.21-4.19,7.28-.85,4.63,1.18,7.69,3.4,12.15a81.08,81.08,0,0,1,5.93,15.29C287.06,307.2,309.15,346.34,304.27,335.08Z"/><path class="cls-5" d="M515.5,77.5a6.75,6.75,0,0,1,3-2c2.42-1.13,4.76-2.12,7-3"/><path class="cls-5" d="M530.5,87.5q2.82-1.52,6-3c2.42-1.13,4.76-2.12,7-3"/><path class="cls-6" d="M548.5,95.5a24.74,24.74,0,0,1,6-2c4-1,6-2,10-1"/><path class="cls-7" d="M565.5,110.5q2.82-1.52,6-3c2.42-1.13,8-1,10,0"/><path class="cls-7" d="M580.5,126.5q2.82-1.52,6-3c2.42-1.13,8-1,10,0"/><path class="cls-7" d="M591.5,145.5q2.82-1.51,6-3c2.42-1.13,8-1,10,0"/><path class="cls-6" d="M597.5,166.5q2.82-1.51,6-3c2.42-1.13,8-1,10,0"/><path class="cls-5" d="M601.5,188.5q2.82-1.51,6-3a8.05,8.05,0,0,1,7,0"/><path class="cls-5" d="M596.5,208.5q2.82-1.51,6-3a8.05,8.05,0,0,1,7,0"/><path class="cls-5" d="M589.5,230.5q2.49-1.51,5.31-3a6.39,6.39,0,0,1,6.19,0"/><path class="cls-5" d="M577.5,247.5c1.37-.93,2.84-1.85,4.38-2.76a4.8,4.8,0,0,1,5.12,0"/><path class="cls-8" d="M362.44,295c-3.7-20,2.3,16.78,0,0-.54-4,1.5,19.77,0,0-.84-11.09-4.78-11.89-6.25-28.73-4.06-46.52-4-51.34-1.75-55.72,1.53-3,6.7-12.37,8.15-23.48.46-3.55.63-7.91-1.95-10.73-.44-.48-3.23-3.54-6.79-2-2.91,1.22-4.51,4.71-4.88,5.6-1.6,3.8-.5,6.69.49,10.78a67.62,67.62,0,0,1,2,13.82C353.5,269,364.34,305.28,362.44,295Z"/><path class="cls-8" d="M185.14,396.6c-9.61-25.22,9,20.59,0,0-2.14-4.93,11.94,23.43,0,0-6.69-13.15-2.79-16.75-12.74-36.85-27.48-55.53-30.89-60.94-36.44-64.38-3.79-2.36-16.1-9.48-25.4-21.09-3-3.71-6.16-8.54-5.19-13.5.17-.84,1.22-6.21,6.27-6.94,4.13-.59,8.34,2.29,9.37,3,4.43,3.22,5.18,7.25,6.88,12.56a90.26,90.26,0,0,0,7.28,17C177.28,360.94,190.06,409.5,185.14,396.6Z"/><path class="cls-9" d="M436.5,286.5c-2.62,4.71,18.67,1.48,39.5-1.5,31.5-4.5,41.09-7.54,57.5-17.5,6.83-4.14,26.29-24.81,17.5-18.5-39,28-85,29-106,24C443.47,272.64,439,282,436.5,286.5Z"/></svg>
